<?xml version="1.0" encoding="UTF-8" standalone="no"?>
<!-- Created with Inkscape (http://www.inkscape.org/) -->

<svg
   width="55.187584mm"
   height="47.866158mm"
   viewBox="0 0 55.187578 47.866157"
   version="1.1"
   id="svg1"
   xml:space="preserve"
   inkscape:version="1.3.2 (091e20e, 2023-11-25)"
   sodipodi:docname="diffsol_hexagon.svg"
   inkscape:export-filename="../Downloads/diffsol_square.png"
   inkscape:export-xdpi="96"
   inkscape:export-ydpi="96"
   xmlns:inkscape="http://www.inkscape.org/namespaces/inkscape"
   xmlns:sodipodi="http://sodipodi.sourceforge.net/DTD/sodipodi-0.dtd"
   xmlns="http://www.w3.org/2000/svg"
   xmlns:svg="http://www.w3.org/2000/svg"><sodipodi:namedview
     id="namedview1"
     pagecolor="#ffffff"
     bordercolor="#000000"
     borderopacity="0.25"
     inkscape:showpageshadow="2"
     inkscape:pageopacity="0.0"
     inkscape:pagecheckerboard="0"
     inkscape:deskcolor="#d1d1d1"
     inkscape:document-units="mm"
     inkscape:zoom="1"
     inkscape:cx="142.5"
     inkscape:cy="188"
     inkscape:window-width="1392"
     inkscape:window-height="965"
     inkscape:window-x="0"
     inkscape:window-y="25"
     inkscape:window-maximized="0"
     inkscape:current-layer="layer1" /><defs
     id="defs1" /><g
     inkscape:label="Layer 1"
     inkscape:groupmode="layer"
     id="layer1"
     transform="translate(-0.64137458,-73.775132)"><path
       sodipodi:type="star"
       style="fill:#4a628a;fill-opacity:1;stroke:#7ab2d3;stroke-width:2.03402;stroke-dasharray:none;stroke-opacity:1"
       id="path86"
       inkscape:flatsided="true"
       sodipodi:sides="6"
       sodipodi:cx="332.91156"
       sodipodi:cy="-277.97028"
       sodipodi:r1="121.69082"
       sodipodi:r2="105.38734"
       sodipodi:arg1="1.0471976"
       sodipodi:arg2="1.5707963"
       inkscape:rounded="-0.032940403"
       inkscape:randomized="0"
       d="m 393.75696,-172.58293 c 3.47151,-2.00427 -125.16232,-2.00428 -121.69081,-1e-5 3.4715,2.00427 -60.84541,-109.39589 -60.84541,-105.38734 0,4.00854 64.31692,-107.39161 60.84542,-105.38734 -3.47151,2.00427 125.16232,2.00428 121.69081,10e-6 -3.4715,-2.00428 60.84541,109.39588 60.84541,105.38734 0,-4.00854 -64.31692,107.39161 -60.84542,105.38734 z"
       transform="matrix(0.22487393,0,0,0.22487393,-46.627966,160.21648)"
       inkscape:transform-center-x="3.8930758e-06"
       inkscape:transform-center-y="-5.2693075e-06" /><path
       style="font-weight:bold;font-size:13.3795px;font-family:'Delius Swash Caps';-inkscape-font-specification:'Delius Swash Caps, Bold';fill:#dff2eb;stroke:#dff2eb;stroke-width:0.00314951"
       d="m 13.232065,97.778827 v -2.12734 q -0.78939,-0.776011 -1.899889,-0.776011 -0.842909,0 -1.498504,0.78939 -0.6555956,0.776011 -0.6555956,1.846371 0,1.056981 0.4682826,1.832992 0.468282,0.749251 1.271052,0.749251 1.404848,0 2.314654,-2.314653 z m 0.561939,-7.117894 q 0.655596,0 0.655596,1.08374 0,0.414764 -0.05352,0.963324 l -0.160554,1.752714 q -0.147175,1.632299 -0.173934,1.966787 0,1.752714 0.120416,2.622382 0.133795,0.856288 0.468282,0.923185 0.347867,0 0.347867,0.200695 0,0.29435 -0.200692,0.54856 -0.187313,0.24083 -0.54856,0.24083 -0.749252,0 -0.923185,-1.792855 -0.990083,1.792855 -2.475208,1.792855 -0.883047,0 -1.4985041,-0.56194 -1.1640165,-1.030222 -1.1640165,-2.769557 0,-1.458366 0.883047,-2.542105 0.8830471,-1.08374 2.2611356,-1.08374 1.003463,0 1.899889,0.655596 0.02676,-2.488587 0.02676,-3.037147 0,-0.548559 0.120416,-0.749252 0.133795,-0.214072 0.414764,-0.214072 z m 3.197692,0.468283 q 0.548559,0 0.548559,0.642216 0,0.294349 -0.200692,0.561939 -0.187313,0.25421 -0.454903,0.25421 -0.561939,0 -0.561939,-0.682354 0,-0.321108 0.187313,-0.54856 0.200692,-0.227451 0.481662,-0.227451 z m 0.441523,3.545567 -0.0669,2.809695 0.0669,2.809692 q 0,0.66898 -0.508421,0.66898 -0.508421,0 -0.508421,-0.66898 l 0.0669,-2.809692 -0.0669,-2.809695 q 0,-0.668975 0.508421,-0.668975 0.508421,0 0.508421,0.668975 z m 1.766107,-0.561939 0.668975,0.02676 v -1.137257 q 0,-1.177396 0.454903,-1.752715 0.468282,-0.588698 1.123878,-0.588698 0.655595,0 1.083739,0.240831 0.441524,0.240831 0.441524,0.53518 0,0.441524 -0.374626,0.441524 -0.09366,0 -0.454903,-0.160554 -0.347867,-0.160554 -0.54856,-0.160554 -0.829529,0 -0.829529,1.565401 v 1.016842 l 1.297812,-0.02676 q 0.214072,0 0.361246,0.120416 0.147175,0.107036 0.147175,0.307728 0,0.401385 -0.508421,0.401385 l -1.297812,-0.02676 0.04014,4.803241 q 0,1.324575 -0.495042,2.033685 -0.481662,0.72249 -1.003462,0.72249 -0.508421,0 -0.508421,-0.25421 0,-0.10703 0.09366,-0.21407 0.107036,-0.0937 0.28097,-0.25421 0.173933,-0.16056 0.294349,-0.33449 0.388005,-0.54856 0.428144,-1.5654 0.04014,-1.016842 0.04014,-2.381551 0,-1.364709 -0.05352,-2.555485 l -0.682354,0.02676 q -0.508421,0 -0.508421,-0.401385 0,-0.200692 0.147174,-0.307728 0.147175,-0.120416 0.361247,-0.120416 z m 4.375092,0 0.668975,0.02676 v -1.137257 q 0,-1.177396 0.454903,-1.752715 0.468283,-0.588698 1.123878,-0.588698 0.655596,0 1.08374,0.240831 0.441523,0.240831 0.441523,0.53518 0,0.441524 -0.374626,0.441524 -0.09366,0 -0.454903,-0.160554 -0.347867,-0.160554 -0.548559,-0.160554 -0.829529,0 -0.829529,1.565401 v 1.016842 l 1.297811,-0.02676 q 0.214072,0 0.361247,0.120416 0.147174,0.107036 0.147174,0.307728 0,0.401385 -0.508421,0.401385 l -1.297811,-0.02676 0.04014,4.803241 q 0,1.324575 -0.495041,2.033685 -0.481662,0.72249 -1.003463,0.72249 -0.508421,0 -0.508421,-0.25421 0,-0.10703 0.09366,-0.21407 0.107036,-0.0937 0.280969,-0.25421 0.173934,-0.16056 0.294349,-0.33449 0.388006,-0.54856 0.428144,-1.5654 0.04014,-1.016842 0.04014,-2.381551 0,-1.364709 -0.05352,-2.555485 l -0.682355,0.02676 q -0.508421,0 -0.508421,-0.401385 0,-0.200692 0.147175,-0.307728 0.147174,-0.120416 0.361246,-0.120416 z m 9.164953,4.789861 q 0,0.896427 -0.749252,1.485125 -0.735873,0.57532 -1.766094,0.57532 -1.030222,0 -1.806233,-0.46828 -0.762631,-0.48167 -0.762631,-0.949949 0,-0.307728 0.25421,-0.414764 0.254211,-0.107036 0.388006,0.02676 0.02676,0.01338 0.53518,0.5218 0.147174,0.133795 0.548559,0.28097 0.401385,0.133794 0.709114,0.133794 0.749252,0 1.217534,-0.307728 0.468283,-0.307728 0.468283,-0.869667 0,-0.709114 -1.33795,-1.164017 -1.485125,-0.508421 -1.899889,-0.869667 -0.200693,-0.173934 -0.374626,-0.454903 -0.160554,-0.294349 -0.160554,-0.615457 0,-0.722493 0.655595,-1.257673 0.668975,-0.54856 1.592161,-0.54856 0.923185,0 1.498504,0.321108 0.575318,0.307729 0.575318,0.695734 0,0.441524 -0.468282,0.441524 -0.187313,0 -0.401385,-0.147175 -0.642216,-0.441523 -1.244294,-0.441523 -0.588698,0 -0.896426,0.26759 -0.361247,0.25421 -0.361247,0.602077 0,0.334488 0.347867,0.54856 0.347867,0.214072 1.137258,0.53518 0.78939,0.307728 0.963324,0.388005 0.588698,0.254211 0.963324,0.695734 0.374626,0.441524 0.374626,0.990083 z m 2.0872,-1.404847 q 0,1.110498 0.615457,1.886509 0.615457,0.776013 1.538643,0.776013 0.936565,0 1.578781,-0.776013 0.655596,-0.78939 0.655596,-1.899889 0,-1.110498 -0.628837,-1.886509 -0.615457,-0.789391 -1.538642,-0.789391 -0.909807,0 -1.578782,0.789391 -0.642216,0.78939 -0.642216,1.899889 z m -0.0669,2.515342 q -0.883047,-1.030218 -0.883047,-2.515342 0,-1.485125 0.896426,-2.515346 0.896427,-1.043601 2.261136,-1.043601 1.364709,0 2.247756,1.030221 0.883047,1.016842 0.883047,2.515346 0,1.485125 -0.909806,2.515346 -0.896426,1.030226 -2.261135,1.030226 -1.35133,0 -2.234377,-1.01685 z m 8.027706,-8.683292 -0.0669,4.482133 0.0669,4.482129 q 0,0.66898 -0.508421,0.66898 -0.508421,0 -0.508421,-0.66898 l 0.0669,-4.482129 -0.0669,-4.482133 q 0,-0.668975 0.508421,-0.668975 0.508421,0 0.508421,0.668975 z"
       id="text1"
       transform="scale(0.9904902,1.0096011)"
       aria-label="diffsol" /><g
       id="g84"
       transform="matrix(0.26245912,0,0,0.26245912,-0.2522282,54.147664)"><ellipse
         style="fill:#7ab2d3;fill-opacity:1;stroke:none;stroke-width:0.448787;stroke-dasharray:none;stroke-opacity:1"
         id="path11"
         cx="151.77644"
         cy="52.421822"
         rx="6.5917454"
         ry="4.4208927"
         transform="matrix(0.9560595,0.2931727,-0.35459047,0.93502171,0,0)" /><ellipse
         style="fill:#7ab2d3;fill-opacity:1;stroke:none;stroke-width:0.433183;stroke-dasharray:none;stroke-opacity:1"
         id="path11-3"
         cx="112.66494"
         cy="85.403748"
         rx="6.0049682"
         ry="4.0773525"
         transform="matrix(0.99890355,0.04681552,-0.0265942,0.99964631,0,0)" /><ellipse
         style="fill:#7ab2d3;fill-opacity:1;stroke:none;stroke-width:0.308865;stroke-dasharray:none;stroke-opacity:1"
         id="path11-3-0"
         cx="76.279465"
         cy="106.52665"
         rx="3.8167355"
         ry="3.2612987"
         transform="matrix(0.98432368,-0.17637145,0.18837221,0.98209771,0,0)"
         inkscape:transform-center-y="0.54654814"
         inkscape:transform-center-x="-0.11111061" /><path
         style="fill:#7ab2d3;fill-opacity:1;stroke-width:0.989735"
         d="m 106.54066,245.24216 c 12.01741,-0.3126 17.21828,-0.63282 29.25857,-6.04466 10.81769,-4.86233 26.95589,-16.65587 33.66697,-26.10961 4.93094,-6.9461 10.58348,-16.99751 13.174,-25.1415 3.23997,-10.18569 2.92678,-17.32622 1.79044,-29.6335 -1.84319,-19.96304 -11.53305,-37.03446 -24.86823,-51.17195 -6.83863,-7.250087 -12.61719,-9.838 -16.76909,-11.439072 -2.1278,-0.820528 -4.08611,-0.227564 -5.02494,0.872514 -0.99273,1.163267 -1.03656,2.071497 -0.43141,3.733848 0.92096,2.52987 3.05585,2.77441 7.26939,6.64854 9.92695,9.12735 19.09142,22.23725 23.55516,35.81531 3.35309,10.19966 2.67478,26.27072 1.69333,31.72404 -1.46571,8.14405 -3.70124,13.96071 -10.67795,22.47344 -6.45003,7.87008 -17.28528,15.45485 -27.41709,19.79406 -9.70183,4.15506 -23.79519,4.47994 -39.569587,2.81164 -5.445671,-0.57595 -10.683477,-0.64563 -15.009405,2.85931 -3.733703,3.02511 -5.845649,10.36826 -2.593924,14.51494 3.211623,4.09554 8.796216,6.34866 13.828422,7.49071 4.718105,1.07076 8.873006,1.04262 18.125344,0.80194 z"
         id="path2"
         sodipodi:nodetypes="sssssssssssssssssss" /><circle
         style="fill:#7ab2d3;fill-opacity:1;stroke:#dff2eb;stroke-width:0;stroke-dasharray:none;stroke-opacity:1"
         id="path57"
         cx="81.707993"
         cy="94.306412"
         r="2.8936162" /><circle
         style="fill:#7ab2d3;fill-opacity:1;stroke:#dff2eb;stroke-width:0;stroke-dasharray:none;stroke-opacity:1"
         id="path57-9"
         cx="69.798813"
         cy="99.704399"
         r="2.8936162" /><circle
         style="fill:#7ab2d3;fill-opacity:1;stroke:#dff2eb;stroke-width:0;stroke-dasharray:none;stroke-opacity:1"
         id="path57-9-3"
         cx="59.222374"
         cy="106.77626"
         r="2.8936162" /><circle
         style="fill:#7ab2d3;fill-opacity:1;stroke:#dff2eb;stroke-width:0;stroke-dasharray:none;stroke-opacity:1"
         id="path57-9-3-8"
         cx="50.664024"
         cy="115.29325"
         r="2.8936162" /></g><path
       sodipodi:type="star"
       style="fill:none;fill-opacity:1;stroke:#dff2eb;stroke-width:0.4;stroke-dasharray:none;stroke-opacity:1"
       id="path84"
       inkscape:flatsided="false"
       sodipodi:sides="6"
       sodipodi:cx="-56.573208"
       sodipodi:cy="-428.65085"
       sodipodi:r1="369.94016"
       sodipodi:r2="184.97008"
       sodipodi:arg1="0.9778998"
       sodipodi:arg2="1.5014986"
       inkscape:rounded="0"
       inkscape:randomized="0"
       d="m 150.1366,-121.84998 -193.902059,-122.27474 -175.150191,147.89025 8.942,-229.06148 -215.65181,-77.73939 202.84406,-106.78674 -40.50161,-225.62964 193.902053,122.27475 175.150197,-147.89026 -8.94201,229.06148 215.65181,77.73939 -202.84406,106.78674 z"
       transform="matrix(0.26458333,0,0,0.26458333,19.725906,78.802864)"
       inkscape:transform-center-y="1.4288361e-06" /><path
       sodipodi:type="star"
       style="fill:none;fill-opacity:1;stroke:#dff2eb;stroke-width:0.4;stroke-dasharray:none;stroke-opacity:1"
       id="path85"
       inkscape:flatsided="true"
       sodipodi:sides="6"
       sodipodi:cx="509.15887"
       sodipodi:cy="-289.39371"
       sodipodi:r1="81.187057"
       sodipodi:r2="88.552414"
       sodipodi:arg1="0.59955651"
       sodipodi:arg2="1.1231553"
       inkscape:rounded="-0.032940403"
       inkscape:randomized="0"
       d="m 576.18577,-243.58177 c 1.50906,-2.20789 -75.85438,34.93808 -73.18775,35.14103 2.66662,0.20294 -68.18446,-48.22278 -67.0269,-45.81194 1.15756,2.41083 7.66992,-83.16086 6.16086,-80.95297 -1.50906,2.2079 75.85437,-34.93808 73.18775,-35.14102 -2.66662,-0.20294 68.18445,48.22277 67.02689,45.81194 -1.15755,-2.41083 -7.66992,83.16086 -6.16085,80.95296 z"
       transform="matrix(0.26458333,0,0,0.26458333,19.725906,78.802864)"
       inkscape:transform-center-x="1.6971962e-06" /></g></svg>
