<?xml version="1.0" encoding="UTF-8" standalone="no"?>
<!-- Created with Inkscape (http://www.inkscape.org/) -->

<svg
   width="67.016243mm"
   height="26.809053mm"
   viewBox="0 0 67.016244 26.809054"
   version="1.1"
   id="svg1"
   xml:space="preserve"
   inkscape:version="1.4 (e7c3feb1, 2024-10-09)"
   sodipodi:docname="diffsol_rectangle.svg"
   inkscape:export-filename="../Downloads/diffsol_rectangle.png"
   inkscape:export-xdpi="96"
   inkscape:export-ydpi="96"
   xmlns:inkscape="http://www.inkscape.org/namespaces/inkscape"
   xmlns:sodipodi="http://sodipodi.sourceforge.net/DTD/sodipodi-0.dtd"
   xmlns="http://www.w3.org/2000/svg"
   xmlns:svg="http://www.w3.org/2000/svg"><sodipodi:namedview
     id="namedview1"
     pagecolor="#ffffff"
     bordercolor="#000000"
     borderopacity="0.25"
     inkscape:showpageshadow="2"
     inkscape:pageopacity="0.0"
     inkscape:pagecheckerboard="0"
     inkscape:deskcolor="#d1d1d1"
     inkscape:document-units="mm"
     inkscape:zoom="4.2233654"
     inkscape:cx="110.45694"
     inkscape:cy="61.799057"
     inkscape:window-width="1920"
     inkscape:window-height="1027"
     inkscape:window-x="0"
     inkscape:window-y="25"
     inkscape:window-maximized="0"
     inkscape:current-layer="g84" /><defs
     id="defs1" /><g
     inkscape:label="Layer 1"
     inkscape:groupmode="layer"
     id="layer1"
     transform="translate(-31.940002,-152.98645)"><rect
       style="fill:#4a628a;fill-opacity:1;stroke:#7ab2d3;stroke-width:0.67854;stroke-dasharray:none;stroke-opacity:1"
       id="rect15"
       width="66.3377"
       height="26.130514"
       x="32.27927"
       y="153.32571"
       ry="0.68464017" /><path
       style="font-weight:bold;font-size:19.053px;font-family:'Delius Swash Caps';-inkscape-font-specification:'Delius Swash Caps, Bold';fill:#dff2eb;stroke-width:0.155095"
       d="m 43.245895,168.11527 v -3.02943 q -1.124127,-1.10507 -2.705526,-1.10507 -1.200339,0 -2.133936,1.12412 -0.933597,1.10508 -0.933597,2.62932 0,1.50518 0.666855,2.61026 0.666855,1.06697 1.810035,1.06697 2.000565,0 3.296169,-3.29617 z m 0.800226,-10.1362 q 0.933597,0 0.933597,1.54329 0,0.59065 -0.07621,1.37182 l -0.228636,2.49594 q -0.209583,2.32447 -0.247689,2.80079 0,2.49595 0.171477,3.73439 0.19053,1.21939 0.666855,1.31466 0.495378,0 0.495378,0.28579 0,0.41917 -0.285795,0.78118 -0.266742,0.34295 -0.781173,0.34295 -1.066968,0 -1.314657,-2.5531 -1.409922,2.5531 -3.524805,2.5531 -1.257498,0 -2.133936,-0.80023 -1.657611,-1.46708 -1.657611,-3.94397 0,-2.07677 1.257498,-3.62007 1.257498,-1.54329 3.219957,-1.54329 1.428975,0 2.705526,0.9336 0.03811,-3.54386 0.03811,-4.32503 0,-0.78118 0.171477,-1.06697 0.19053,-0.30485 0.590643,-0.30485 z m 4.553654,0.66686 q 0.781173,0 0.781173,0.91454 0,0.41917 -0.285795,0.80023 -0.266742,0.362 -0.647802,0.362 -0.800226,0 -0.800226,-0.9717 0,-0.45727 0.266742,-0.78117 0.285795,-0.3239 0.685908,-0.3239 z m 0.628749,5.04904 -0.09526,4.00113 0.09526,4.00113 q 0,0.95265 -0.724014,0.95265 -0.724014,0 -0.724014,-0.95265 l 0.09526,-4.00113 -0.09526,-4.00113 q 0,-0.95265 0.724014,-0.95265 0.724014,0 0.724014,0.95265 z m 2.515014,-0.80023 0.95265,0.0381 v -1.6195 q 0,-1.67667 0.647802,-2.49595 0.666855,-0.83833 1.600452,-0.83833 0.933597,0 1.543293,0.34295 0.628749,0.34296 0.628749,0.76212 0,0.62875 -0.533484,0.62875 -0.133371,0 -0.647802,-0.22863 -0.495378,-0.22864 -0.781173,-0.22864 -1.181286,0 -1.181286,2.2292 v 1.44803 l 1.848141,-0.0381 q 0.304848,0 0.514431,0.17148 0.209583,0.15243 0.209583,0.43822 0,0.57159 -0.724014,0.57159 l -1.848141,-0.0381 0.05716,6.84003 q 0,1.88625 -0.704961,2.89606 -0.685908,1.02886 -1.428975,1.02886 -0.724014,0 -0.724014,-0.36201 0,-0.15242 0.133371,-0.30485 0.152424,-0.13337 0.400113,-0.362 0.247689,-0.22864 0.419166,-0.47633 0.552537,-0.78117 0.609696,-2.2292 0.05716,-1.44803 0.05716,-3.39143 0,-1.94341 -0.07621,-3.63913 l -0.971703,0.0381 q -0.724014,0 -0.724014,-0.57159 0,-0.28579 0.209583,-0.43822 0.209583,-0.17148 0.514431,-0.17148 z m 6.230324,0 0.95265,0.0381 v -1.6195 q 0,-1.67667 0.647802,-2.49595 0.666855,-0.83833 1.600452,-0.83833 0.933597,0 1.543293,0.34295 0.628749,0.34296 0.628749,0.76212 0,0.62875 -0.533484,0.62875 -0.133371,0 -0.647802,-0.22863 -0.495378,-0.22864 -0.781173,-0.22864 -1.181286,0 -1.181286,2.2292 v 1.44803 l 1.848141,-0.0381 q 0.304848,0 0.514431,0.17148 0.209583,0.15243 0.209583,0.43822 0,0.57159 -0.724014,0.57159 l -1.848141,-0.0381 0.05716,6.84003 q 0,1.88625 -0.704961,2.89606 -0.685908,1.02886 -1.428975,1.02886 -0.724014,0 -0.724014,-0.36201 0,-0.15242 0.133371,-0.30485 0.152424,-0.13337 0.400113,-0.362 0.247689,-0.22864 0.419166,-0.47633 0.552537,-0.78117 0.609696,-2.2292 0.05716,-1.44803 0.05716,-3.39143 0,-1.94341 -0.07621,-3.63913 l -0.971703,0.0381 q -0.724014,0 -0.724014,-0.57159 0,-0.28579 0.209583,-0.43822 0.209583,-0.17148 0.514431,-0.17148 z m 13.051297,6.82098 q 0,1.27655 -1.066968,2.11488 -1.047915,0.81928 -2.514996,0.81928 -1.467081,0 -2.572154,-0.66685 -1.086021,-0.68591 -1.086021,-1.35277 0,-0.43822 0.362007,-0.59064 0.362007,-0.15242 0.552537,0.0381 0.03811,0.019 0.762119,0.74306 0.209583,0.19053 0.781173,0.40012 0.57159,0.19053 1.009809,0.19053 1.066968,0 1.733823,-0.43822 0.666855,-0.43822 0.666855,-1.23845 0,-1.00981 -1.9053,-1.65761 -2.114883,-0.72401 -2.705525,-1.23844 -0.285795,-0.24769 -0.533484,-0.64781 -0.228636,-0.41916 -0.228636,-0.87643 0,-1.02887 0.933597,-1.79099 0.952649,-0.78117 2.267306,-0.78117 1.314657,0 2.133936,0.45727 0.819279,0.43822 0.819279,0.99076 0,0.62875 -0.666855,0.62875 -0.266742,0 -0.57159,-0.20959 -0.914544,-0.62874 -1.771929,-0.62874 -0.838332,0 -1.276551,0.38106 -0.514431,0.362 -0.514431,0.85738 0,0.47633 0.495378,0.78117 0.495378,0.30485 1.619505,0.76212 1.124127,0.43822 1.371816,0.55254 0.838332,0.36201 1.371816,0.99076 0.533484,0.62875 0.533484,1.40992 z m 2.972269,-2.00057 q 0,1.5814 0.876438,2.68648 0.876438,1.10507 2.191094,1.10507 1.33371,0 2.248254,-1.10507 0.933597,-1.12413 0.933597,-2.70553 0,-1.5814 -0.895491,-2.68647 -0.876438,-1.12413 -2.191095,-1.12413 -1.295603,0 -2.248253,1.12413 -0.914544,1.12412 -0.914544,2.70552 z m -0.09526,3.58197 q -1.257498,-1.46708 -1.257498,-3.58197 0,-2.11488 1.276551,-3.58196 1.276551,-1.48613 3.219956,-1.48613 1.943406,0 3.200904,1.46708 1.257498,1.44802 1.257498,3.58196 0,2.11488 -1.295604,3.58196 -1.276551,1.46709 -3.219957,1.46709 -1.924352,0 -3.18185,-1.44803 z m 11.431804,-12.3654 -0.09526,6.38276 0.09526,6.38275 q 0,0.95265 -0.724014,0.95265 -0.724014,0 -0.724014,-0.95265 l 0.09527,-6.38275 -0.09527,-6.38276 q 0,-0.95265 0.724014,-0.95265 0.724014,0 0.724014,0.95265 z"
       id="text1"
       aria-label="diffsol" /><g
       id="g84"
       transform="matrix(0.14516569,0,0,0.14516569,67.945008,142.29771)"><g
         id="g2"
         transform="matrix(8.2233082,0,0,8.2233082,-1405.8871,-1830.6291)"><ellipse
           style="display:inline;fill:#7ab2d3;fill-opacity:1;stroke:none;stroke-width:0.413516;stroke-dasharray:none;stroke-opacity:1"
           id="path11-9"
           cx="153.43369"
           cy="55.950191"
           rx="6.2989626"
           ry="3.927747"
           transform="matrix(0.11704453,0.03270902,-0.04669048,0.11220206,170.91034,222.63345)" /><ellipse
           style="display:inline;fill:#7ab2d3;fill-opacity:1;stroke:none;stroke-width:0.384993;stroke-dasharray:none;stroke-opacity:1"
           id="path11-3-7"
           cx="111.85053"
           cy="84.995201"
           rx="5.5184631"
           ry="3.50455"
           transform="matrix(0.12141248,0.00532101,-0.00345605,0.12147987,170.91034,222.63345)" /><ellipse
           style="display:inline;fill:#7ab2d3;fill-opacity:1;stroke:none;stroke-width:0.308865;stroke-dasharray:none;stroke-opacity:1"
           id="path11-3-0-5"
           cx="75.264107"
           cy="105.39329"
           rx="3.8167355"
           ry="3.2612987"
           transform="matrix(0.11962389,-0.02143425,0.02289269,0.11935337,170.91034,222.63345)"
           inkscape:transform-center-y="0.54654814"
           inkscape:transform-center-x="-0.11111061" /><circle
           style="display:inline;fill:#7ab2d3;fill-opacity:1;stroke:#dff2eb;stroke-width:0;stroke-dasharray:none;stroke-opacity:1"
           id="path57-90"
           cx="81.097672"
           cy="93.848671"
           r="2.8936162"
           transform="matrix(0.12152902,0,0,0.12152902,170.91034,222.63345)" /><circle
           style="display:inline;fill:#7ab2d3;fill-opacity:1;stroke:#dff2eb;stroke-width:0;stroke-dasharray:none;stroke-opacity:1"
           id="path57-9-5"
           cx="69.798813"
           cy="99.704399"
           r="2.8936162"
           transform="matrix(0.12152902,0,0,0.12152902,170.91034,222.63345)" /><circle
           style="display:inline;fill:#7ab2d3;fill-opacity:1;stroke:#dff2eb;stroke-width:0;stroke-dasharray:none;stroke-opacity:1"
           id="path57-9-3-5"
           cx="59.222374"
           cy="106.77626"
           r="2.8936162"
           transform="matrix(0.12152902,0,0,0.12152902,170.91034,222.63345)" /><circle
           style="display:inline;fill:#7ab2d3;fill-opacity:1;stroke:#dff2eb;stroke-width:0;stroke-dasharray:none;stroke-opacity:1"
           id="path57-9-3-8-6"
           cx="50.664024"
           cy="115.29325"
           r="2.8936162"
           transform="matrix(0.12152902,0,0,0.12152902,170.91034,222.63345)" /><path
           style="display:inline;fill:#7ab2d3;fill-opacity:1;stroke-width:0.989735"
           d="m 106.54066,245.24216 c 8.25859,-0.41942 17.21025,-0.78264 30.33747,-6.15255 12.44761,-5.0919 23.59344,-12.06405 32.8374,-24.33849 6.09272,-8.09012 10.61693,-18.41713 13.03739,-26.9408 2.32475,-8.18664 3.35834,-17.05408 2.222,-29.36136 -1.84319,-19.96304 -13.47273,-39.21718 -25.87178,-50.74454 -4.36172,-4.05507 -8.3873,-7.42113 -12.61697,-9.704542 -4.87459,-2.631576 -7.11276,-3.030952 -8.71779,-1.596368 -1.33991,1.197618 -0.82688,2.918094 -0.0897,3.96168 1.22427,1.73304 6.3888,3.19008 13.34139,10.39679 6.25047,6.47893 13.53573,15.37484 17.41498,28.69712 3.18414,10.93509 4.21366,22.1967 1.81431,33.73467 -1.68474,8.10158 -4.20902,15.82948 -11.22507,24.30982 -7.92664,9.58098 -17.3683,15.17625 -27.72225,18.95487 -12.32186,4.4968 -27.30398,4.02065 -39.339676,3.1168 -5.460666,-0.41008 -11.066205,-0.96506 -15.578977,2.85931 -3.41867,2.89717 -4.918771,10.08458 -1.643944,14.8201 3.570437,5.16298 8.585832,6.33751 13.675843,7.18555 6.426821,1.07076 13.210944,1.05152 18.125344,0.80194 z"
           id="path2-3"
           sodipodi:nodetypes="ssssssssssssssssssss"
           transform="matrix(0.12152902,0,0,0.12152902,170.91034,222.63345)" /></g></g></g></svg>
