<?xml version="1.0" encoding="UTF-8" standalone="no"?>
<!-- Created with Inkscape (http://www.inkscape.org/) -->

<svg
   width="21.361691mm"
   height="21.361691mm"
   viewBox="0 0 21.361689 21.361691"
   version="1.1"
   id="svg1"
   xml:space="preserve"
   inkscape:version="1.3.2 (091e20e, 2023-11-25)"
   sodipodi:docname="diffsol_square.svg"
   inkscape:export-filename="../Downloads/diffsol_square.png"
   inkscape:export-xdpi="96"
   inkscape:export-ydpi="96"
   xmlns:inkscape="http://www.inkscape.org/namespaces/inkscape"
   xmlns:sodipodi="http://sodipodi.sourceforge.net/DTD/sodipodi-0.dtd"
   xmlns="http://www.w3.org/2000/svg"
   xmlns:svg="http://www.w3.org/2000/svg"><sodipodi:namedview
     id="namedview1"
     pagecolor="#ffffff"
     bordercolor="#000000"
     borderopacity="0.25"
     inkscape:showpageshadow="2"
     inkscape:pageopacity="0.0"
     inkscape:pagecheckerboard="0"
     inkscape:deskcolor="#d1d1d1"
     inkscape:document-units="mm"
     inkscape:zoom="2.8284271"
     inkscape:cx="20.32932"
     inkscape:cy="6.7175144"
     inkscape:window-width="1392"
     inkscape:window-height="965"
     inkscape:window-x="0"
     inkscape:window-y="25"
     inkscape:window-maximized="0"
     inkscape:current-layer="layer1" /><defs
     id="defs1" /><g
     inkscape:label="Layer 1"
     inkscape:groupmode="layer"
     id="layer1"
     transform="translate(-173.18424,-232.2612)"><path
       style="fill:#000000"
       d="m -4.0963555,-11.742328 c 0,-0.0549 0.18131,-0.25038 0.40293,-0.4343 0.3369,-0.27961 0.37562,-0.26324 0.23627,0.0999 -0.14232,0.37087 -0.6392,0.63082 -0.6392,0.3344 z"
       id="path5" /><path
       style="fill:#000000"
       d="m -4.2286555,-12.436188 c 0.0899,-0.14552 0.0374,-0.26458 -0.11667,-0.26458 -0.15411,0 -0.2802,0.11906 -0.2802,0.26458 0,0.14553 0.0525,0.26459 0.11668,0.26459 0.0642,0 0.19026,-0.11906 0.28019,-0.26459 z"
       id="path4" /><circle
       style="fill:#4a628a;fill-opacity:1;stroke:#7ab2d3;stroke-width:0.25807"
       id="path1"
       cx="183.86508"
       cy="242.94205"
       r="10.55181" /><path
       style="font-weight:bold;font-size:6.22907px;font-family:'Delius Swash Caps';-inkscape-font-specification:'Delius Swash Caps, Bold';fill:#dff2eb;stroke:#dff2eb;stroke-width:0.00146631"
       d="m 178.51922,241.09718 v -0.99042 q -0.36751,-0.36129 -0.88452,-0.36129 -0.39244,0 -0.69766,0.36752 -0.30522,0.36129 -0.30522,0.85961 0,0.4921 0.21801,0.85338 0.21802,0.34883 0.59176,0.34883 0.65406,0 1.07763,-1.07763 z m 0.26162,-3.31386 q 0.30523,0 0.30523,0.50455 0,0.1931 -0.0249,0.44849 l -0.0747,0.81601 q -0.0685,0.75995 -0.081,0.91568 0,0.816 0.0561,1.22089 0.0623,0.39866 0.21801,0.42981 0.16196,0 0.16196,0.0934 0,0.13704 -0.0934,0.25539 -0.0872,0.11212 -0.25539,0.11212 -0.34883,0 -0.4298,-0.83469 -0.46095,0.83469 -1.15238,0.83469 -0.41112,0 -0.69766,-0.26162 -0.54193,-0.47964 -0.54193,-1.28942 0,-0.67897 0.41112,-1.18352 0.41112,-0.50456 1.05272,-0.50456 0.46718,0 0.88452,0.30523 0.0125,-1.15861 0.0125,-1.414 0,-0.25539 0.0561,-0.34883 0.0623,-0.0997 0.1931,-0.0997 z m 1.48875,0.21801 q 0.25539,0 0.25539,0.299 0,0.13704 -0.0934,0.26162 -0.0872,0.11835 -0.21178,0.11835 -0.26163,0 -0.26163,-0.31768 0,-0.1495 0.0872,-0.25539 0.0934,-0.1059 0.22425,-0.1059 z m 0.20556,1.65071 -0.0312,1.3081 0.0312,1.30811 q 0,0.31145 -0.23671,0.31145 -0.2367,0 -0.2367,-0.31145 l 0.0311,-1.30811 -0.0311,-1.3081 q 0,-0.31146 0.2367,-0.31146 0.23671,0 0.23671,0.31146 z m 0.82224,-0.26162 0.31145,0.0125 v -0.52948 q 0,-0.54815 0.21179,-0.816 0.21802,-0.27408 0.52324,-0.27408 0.30523,0 0.50456,0.11212 0.20556,0.11212 0.20556,0.24916 0,0.20556 -0.17442,0.20556 -0.0436,0 -0.21178,-0.0747 -0.16196,-0.0747 -0.2554,-0.0747 -0.3862,0 -0.3862,0.72881 v 0.47341 l 0.60422,-0.0125 q 0.0997,0 0.16819,0.0561 0.0685,0.0498 0.0685,0.14327 0,0.18687 -0.23671,0.18687 l -0.60422,-0.0125 0.0187,2.23624 q 0,0.61668 -0.23048,0.94682 -0.22424,0.33637 -0.46718,0.33637 -0.2367,0 -0.2367,-0.11836 0,-0.0498 0.0436,-0.0997 0.0498,-0.0436 0.13081,-0.11835 0.081,-0.0747 0.13704,-0.15573 0.18064,-0.25539 0.19933,-0.7288 0.0187,-0.47341 0.0187,-1.10878 0,-0.63536 -0.0249,-1.18975 l -0.31768,0.0125 q -0.2367,0 -0.2367,-0.18687 0,-0.0934 0.0685,-0.14327 0.0685,-0.0561 0.16818,-0.0561 z m 2.0369,0 0.31146,0.0125 v -0.52948 q 0,-0.54815 0.21179,-0.816 0.21801,-0.27408 0.52324,-0.27408 0.30522,0 0.50455,0.11212 0.20556,0.11212 0.20556,0.24916 0,0.20556 -0.17441,0.20556 -0.0436,0 -0.21179,-0.0747 -0.16196,-0.0747 -0.25539,-0.0747 -0.3862,0 -0.3862,0.72881 v 0.47341 l 0.60422,-0.0125 q 0.0997,0 0.16818,0.0561 0.0685,0.0498 0.0685,0.14327 0,0.18687 -0.2367,0.18687 l -0.60422,-0.0125 0.0187,2.23624 q 0,0.61668 -0.23047,0.94682 -0.22425,0.33637 -0.46718,0.33637 -0.23671,0 -0.23671,-0.11836 0,-0.0498 0.0436,-0.0997 0.0498,-0.0436 0.13081,-0.11835 0.081,-0.0747 0.13704,-0.15573 0.18064,-0.25539 0.19933,-0.7288 0.0187,-0.47341 0.0187,-1.10878 0,-0.63536 -0.0249,-1.18975 l -0.31769,0.0125 q -0.2367,0 -0.2367,-0.18687 0,-0.0934 0.0685,-0.14327 0.0685,-0.0561 0.16818,-0.0561 z m 4.26692,2.23 q 0,0.41735 -0.34883,0.69143 -0.3426,0.26785 -0.82224,0.26785 -0.47964,0 -0.84092,-0.21802 -0.35506,-0.22424 -0.35506,-0.44226 0,-0.14327 0.11835,-0.1931 0.11835,-0.0498 0.18064,0.0125 0.0125,0.006 0.24917,0.24293 0.0685,0.0623 0.25539,0.13081 0.18687,0.0623 0.33014,0.0623 0.34883,0 0.56685,-0.14327 0.21801,-0.14327 0.21801,-0.40489 0,-0.33014 -0.6229,-0.54193 -0.69143,-0.2367 -0.88453,-0.40489 -0.0934,-0.081 -0.17442,-0.21178 -0.0747,-0.13704 -0.0747,-0.28654 0,-0.33637 0.30523,-0.58553 0.31145,-0.2554 0.74126,-0.2554 0.4298,0 0.69765,0.1495 0.26785,0.14327 0.26785,0.32391 0,0.20556 -0.21801,0.20556 -0.0872,0 -0.18688,-0.0685 -0.29899,-0.20556 -0.5793,-0.20556 -0.27408,0 -0.41735,0.12459 -0.16818,0.11835 -0.16818,0.2803 0,0.15573 0.16195,0.2554 0.16196,0.0997 0.52948,0.24916 0.36751,0.14327 0.44849,0.18064 0.27408,0.11835 0.44849,0.32391 0.17442,0.20556 0.17442,0.46095 z m 0.97173,-0.65405 q 0,0.51701 0.28654,0.8783 0.28653,0.36129 0.71634,0.36129 0.43603,0 0.73503,-0.36129 0.30522,-0.36751 0.30522,-0.88453 0,-0.51701 -0.29276,-0.8783 -0.28654,-0.36751 -0.71634,-0.36751 -0.42358,0 -0.73504,0.36751 -0.29899,0.36752 -0.29899,0.88453 z m -0.0311,1.17107 q -0.41111,-0.47964 -0.41111,-1.17107 0,-0.69142 0.41734,-1.17106 0.41735,-0.48587 1.05272,-0.48587 0.63536,0 1.04648,0.47964 0.41112,0.47341 0.41112,1.17106 0,0.69143 -0.42358,1.17107 -0.41735,0.47964 -1.05271,0.47964 -0.62914,0 -1.04026,-0.47341 z m 3.73745,-4.04267 -0.0311,2.08674 0.0311,2.08674 q 0,0.31145 -0.23671,0.31145 -0.2367,0 -0.2367,-0.31145 l 0.0311,-2.08674 -0.0311,-2.08674 q 0,-0.31145 0.2367,-0.31145 0.23671,0 0.23671,0.31145 z"
       id="text1"
       transform="scale(0.99049019,1.0096011)"
       aria-label="diffsol" /><g
       id="g84"
       transform="matrix(0.12219247,0,0,0.12219247,170.60227,222.66166)"><ellipse
         style="fill:#7ab2d3;fill-opacity:1;stroke:none;stroke-width:0.448787;stroke-dasharray:none;stroke-opacity:1"
         id="path11"
         cx="151.77644"
         cy="52.421822"
         rx="6.5917454"
         ry="4.4208927"
         transform="matrix(0.9560595,0.2931727,-0.35459047,0.93502171,0,0)" /><ellipse
         style="fill:#7ab2d3;fill-opacity:1;stroke:none;stroke-width:0.433183;stroke-dasharray:none;stroke-opacity:1"
         id="path11-3"
         cx="112.66494"
         cy="85.403748"
         rx="6.0049682"
         ry="4.0773525"
         transform="matrix(0.99890355,0.04681552,-0.0265942,0.99964631,0,0)" /><ellipse
         style="fill:#7ab2d3;fill-opacity:1;stroke:none;stroke-width:0.308865;stroke-dasharray:none;stroke-opacity:1"
         id="path11-3-0"
         cx="76.279465"
         cy="106.52665"
         rx="3.8167355"
         ry="3.2612987"
         transform="matrix(0.98432368,-0.17637145,0.18837221,0.98209771,0,0)"
         inkscape:transform-center-y="0.54654814"
         inkscape:transform-center-x="-0.11111061" /><path
         style="fill:#7ab2d3;fill-opacity:1;stroke-width:0.989735"
         d="m 106.54066,245.24216 c 12.01741,-0.3126 17.21828,-0.63282 29.25857,-6.04466 10.81769,-4.86233 26.95589,-16.65587 33.66697,-26.10961 4.93094,-6.9461 10.58348,-16.99751 13.174,-25.1415 3.23997,-10.18569 2.92678,-17.32622 1.79044,-29.6335 -1.84319,-19.96304 -11.53305,-37.03446 -24.86823,-51.17195 -6.83863,-7.250087 -12.61719,-9.838 -16.76909,-11.439072 -2.1278,-0.820528 -4.08611,-0.227564 -5.02494,0.872514 -0.99273,1.163267 -1.03656,2.071497 -0.43141,3.733848 0.92096,2.52987 3.05585,2.77441 7.26939,6.64854 9.92695,9.12735 19.09142,22.23725 23.55516,35.81531 3.35309,10.19966 2.67478,26.27072 1.69333,31.72404 -1.46571,8.14405 -3.70124,13.96071 -10.67795,22.47344 -6.45003,7.87008 -17.28528,15.45485 -27.41709,19.79406 -9.70183,4.15506 -23.79519,4.47994 -39.569587,2.81164 -5.445671,-0.57595 -10.683477,-0.64563 -15.009405,2.85931 -3.733703,3.02511 -5.845649,10.36826 -2.593924,14.51494 3.211623,4.09554 8.796216,6.34866 13.828422,7.49071 4.718105,1.07076 8.873006,1.04262 18.125344,0.80194 z"
         id="path2"
         sodipodi:nodetypes="sssssssssssssssssss" /><circle
         style="fill:#7ab2d3;fill-opacity:1;stroke:#dff2eb;stroke-width:0;stroke-dasharray:none;stroke-opacity:1"
         id="path57"
         cx="81.707993"
         cy="94.306412"
         r="2.8936162" /><circle
         style="fill:#7ab2d3;fill-opacity:1;stroke:#dff2eb;stroke-width:0;stroke-dasharray:none;stroke-opacity:1"
         id="path57-9"
         cx="69.798813"
         cy="99.704399"
         r="2.8936162" /><circle
         style="fill:#7ab2d3;fill-opacity:1;stroke:#dff2eb;stroke-width:0;stroke-dasharray:none;stroke-opacity:1"
         id="path57-9-3"
         cx="59.222374"
         cy="106.77626"
         r="2.8936162" /><circle
         style="fill:#7ab2d3;fill-opacity:1;stroke:#dff2eb;stroke-width:0;stroke-dasharray:none;stroke-opacity:1"
         id="path57-9-3-8"
         cx="50.664024"
         cy="115.29325"
         r="2.8936162" /></g></g></svg>
