<?xml version="1.0" encoding="UTF-8" standalone="no"?>
<!-- Created with Inkscape (http://www.inkscape.org/) -->

<svg
   width="67.016243mm"
   height="26.809053mm"
   viewBox="0 0 67.016244 26.809054"
   version="1.1"
   id="svg1"
   xml:space="preserve"
   inkscape:version="1.3.2 (091e20e, 2023-11-25)"
   sodipodi:docname="diffsol_rectangle.svg"
   inkscape:export-filename="../Downloads/diffsol_rectangle.png"
   inkscape:export-xdpi="96"
   inkscape:export-ydpi="96"
   xmlns:inkscape="http://www.inkscape.org/namespaces/inkscape"
   xmlns:sodipodi="http://sodipodi.sourceforge.net/DTD/sodipodi-0.dtd"
   xmlns="http://www.w3.org/2000/svg"
   xmlns:svg="http://www.w3.org/2000/svg"><sodipodi:namedview
     id="namedview1"
     pagecolor="#ffffff"
     bordercolor="#000000"
     borderopacity="0.25"
     inkscape:showpageshadow="2"
     inkscape:pageopacity="0.0"
     inkscape:pagecheckerboard="0"
     inkscape:deskcolor="#d1d1d1"
     inkscape:document-units="mm"
     inkscape:zoom="1"
     inkscape:cx="97"
     inkscape:cy="129"
     inkscape:window-width="1392"
     inkscape:window-height="965"
     inkscape:window-x="0"
     inkscape:window-y="25"
     inkscape:window-maximized="0"
     inkscape:current-layer="layer1" /><defs
     id="defs1" /><g
     inkscape:label="Layer 1"
     inkscape:groupmode="layer"
     id="layer1"
     transform="translate(-31.940002,-152.98645)"><rect
       style="fill:#4a628a;fill-opacity:1;stroke:#7ab2d3;stroke-width:0.67854;stroke-dasharray:none;stroke-opacity:1"
       id="rect15"
       width="66.3377"
       height="26.130514"
       x="32.27927"
       y="153.32571"
       ry="0.68464017" /><path
       style="font-weight:bold;font-size:19.053px;font-family:'Delius Swash Caps';-inkscape-font-specification:'Delius Swash Caps, Bold';fill:#dff2eb;stroke-width:0.155095"
       d="m 43.245895,168.11527 v -3.02943 q -1.124127,-1.10507 -2.705526,-1.10507 -1.200339,0 -2.133936,1.12412 -0.933597,1.10508 -0.933597,2.62932 0,1.50518 0.666855,2.61026 0.666855,1.06697 1.810035,1.06697 2.000565,0 3.296169,-3.29617 z m 0.800226,-10.1362 q 0.933597,0 0.933597,1.54329 0,0.59065 -0.07621,1.37182 l -0.228636,2.49594 q -0.209583,2.32447 -0.247689,2.80079 0,2.49595 0.171477,3.73439 0.19053,1.21939 0.666855,1.31466 0.495378,0 0.495378,0.28579 0,0.41917 -0.285795,0.78118 -0.266742,0.34295 -0.781173,0.34295 -1.066968,0 -1.314657,-2.5531 -1.409922,2.5531 -3.524805,2.5531 -1.257498,0 -2.133936,-0.80023 -1.657611,-1.46708 -1.657611,-3.94397 0,-2.07677 1.257498,-3.62007 1.257498,-1.54329 3.219957,-1.54329 1.428975,0 2.705526,0.9336 0.03811,-3.54386 0.03811,-4.32503 0,-0.78118 0.171477,-1.06697 0.19053,-0.30485 0.590643,-0.30485 z m 4.553654,0.66686 q 0.781173,0 0.781173,0.91454 0,0.41917 -0.285795,0.80023 -0.266742,0.362 -0.647802,0.362 -0.800226,0 -0.800226,-0.9717 0,-0.45727 0.266742,-0.78117 0.285795,-0.3239 0.685908,-0.3239 z m 0.628749,5.04904 -0.09526,4.00113 0.09526,4.00113 q 0,0.95265 -0.724014,0.95265 -0.724014,0 -0.724014,-0.95265 l 0.09526,-4.00113 -0.09526,-4.00113 q 0,-0.95265 0.724014,-0.95265 0.724014,0 0.724014,0.95265 z m 2.515014,-0.80023 0.95265,0.0381 v -1.6195 q 0,-1.67667 0.647802,-2.49595 0.666855,-0.83833 1.600452,-0.83833 0.933597,0 1.543293,0.34295 0.628749,0.34296 0.628749,0.76212 0,0.62875 -0.533484,0.62875 -0.133371,0 -0.647802,-0.22863 -0.495378,-0.22864 -0.781173,-0.22864 -1.181286,0 -1.181286,2.2292 v 1.44803 l 1.848141,-0.0381 q 0.304848,0 0.514431,0.17148 0.209583,0.15243 0.209583,0.43822 0,0.57159 -0.724014,0.57159 l -1.848141,-0.0381 0.05716,6.84003 q 0,1.88625 -0.704961,2.89606 -0.685908,1.02886 -1.428975,1.02886 -0.724014,0 -0.724014,-0.36201 0,-0.15242 0.133371,-0.30485 0.152424,-0.13337 0.400113,-0.362 0.247689,-0.22864 0.419166,-0.47633 0.552537,-0.78117 0.609696,-2.2292 0.05716,-1.44803 0.05716,-3.39143 0,-1.94341 -0.07621,-3.63913 l -0.971703,0.0381 q -0.724014,0 -0.724014,-0.57159 0,-0.28579 0.209583,-0.43822 0.209583,-0.17148 0.514431,-0.17148 z m 6.230324,0 0.95265,0.0381 v -1.6195 q 0,-1.67667 0.647802,-2.49595 0.666855,-0.83833 1.600452,-0.83833 0.933597,0 1.543293,0.34295 0.628749,0.34296 0.628749,0.76212 0,0.62875 -0.533484,0.62875 -0.133371,0 -0.647802,-0.22863 -0.495378,-0.22864 -0.781173,-0.22864 -1.181286,0 -1.181286,2.2292 v 1.44803 l 1.848141,-0.0381 q 0.304848,0 0.514431,0.17148 0.209583,0.15243 0.209583,0.43822 0,0.57159 -0.724014,0.57159 l -1.848141,-0.0381 0.05716,6.84003 q 0,1.88625 -0.704961,2.89606 -0.685908,1.02886 -1.428975,1.02886 -0.724014,0 -0.724014,-0.36201 0,-0.15242 0.133371,-0.30485 0.152424,-0.13337 0.400113,-0.362 0.247689,-0.22864 0.419166,-0.47633 0.552537,-0.78117 0.609696,-2.2292 0.05716,-1.44803 0.05716,-3.39143 0,-1.94341 -0.07621,-3.63913 l -0.971703,0.0381 q -0.724014,0 -0.724014,-0.57159 0,-0.28579 0.209583,-0.43822 0.209583,-0.17148 0.514431,-0.17148 z m 13.051297,6.82098 q 0,1.27655 -1.066968,2.11488 -1.047915,0.81928 -2.514996,0.81928 -1.467081,0 -2.572154,-0.66685 -1.086021,-0.68591 -1.086021,-1.35277 0,-0.43822 0.362007,-0.59064 0.362007,-0.15242 0.552537,0.0381 0.03811,0.019 0.762119,0.74306 0.209583,0.19053 0.781173,0.40012 0.57159,0.19053 1.009809,0.19053 1.066968,0 1.733823,-0.43822 0.666855,-0.43822 0.666855,-1.23845 0,-1.00981 -1.9053,-1.65761 -2.114883,-0.72401 -2.705525,-1.23844 -0.285795,-0.24769 -0.533484,-0.64781 -0.228636,-0.41916 -0.228636,-0.87643 0,-1.02887 0.933597,-1.79099 0.952649,-0.78117 2.267306,-0.78117 1.314657,0 2.133936,0.45727 0.819279,0.43822 0.819279,0.99076 0,0.62875 -0.666855,0.62875 -0.266742,0 -0.57159,-0.20959 -0.914544,-0.62874 -1.771929,-0.62874 -0.838332,0 -1.276551,0.38106 -0.514431,0.362 -0.514431,0.85738 0,0.47633 0.495378,0.78117 0.495378,0.30485 1.619505,0.76212 1.124127,0.43822 1.371816,0.55254 0.838332,0.36201 1.371816,0.99076 0.533484,0.62875 0.533484,1.40992 z m 2.972269,-2.00057 q 0,1.5814 0.876438,2.68648 0.876438,1.10507 2.191094,1.10507 1.33371,0 2.248254,-1.10507 0.933597,-1.12413 0.933597,-2.70553 0,-1.5814 -0.895491,-2.68647 -0.876438,-1.12413 -2.191095,-1.12413 -1.295603,0 -2.248253,1.12413 -0.914544,1.12412 -0.914544,2.70552 z m -0.09526,3.58197 q -1.257498,-1.46708 -1.257498,-3.58197 0,-2.11488 1.276551,-3.58196 1.276551,-1.48613 3.219956,-1.48613 1.943406,0 3.200904,1.46708 1.257498,1.44802 1.257498,3.58196 0,2.11488 -1.295604,3.58196 -1.276551,1.46709 -3.219957,1.46709 -1.924352,0 -3.18185,-1.44803 z m 11.431804,-12.3654 -0.09526,6.38276 0.09526,6.38275 q 0,0.95265 -0.724014,0.95265 -0.724014,0 -0.724014,-0.95265 l 0.09527,-6.38275 -0.09527,-6.38276 q 0,-0.95265 0.724014,-0.95265 0.724014,0 0.724014,0.95265 z"
       id="text1"
       aria-label="diffsol" /><g
       id="g84"
       transform="matrix(0.14516569,0,0,0.14516569,67.945008,142.29771)"><ellipse
         style="fill:#7ab2d3;fill-opacity:1;stroke:none;stroke-width:0.448787;stroke-dasharray:none;stroke-opacity:1"
         id="path11"
         cx="151.77644"
         cy="52.421822"
         rx="6.5917454"
         ry="4.4208927"
         transform="matrix(0.9560595,0.2931727,-0.35459047,0.93502171,0,0)" /><ellipse
         style="fill:#7ab2d3;fill-opacity:1;stroke:none;stroke-width:0.433183;stroke-dasharray:none;stroke-opacity:1"
         id="path11-3"
         cx="112.66494"
         cy="85.403748"
         rx="6.0049682"
         ry="4.0773525"
         transform="matrix(0.99890355,0.04681552,-0.0265942,0.99964631,0,0)" /><ellipse
         style="fill:#7ab2d3;fill-opacity:1;stroke:none;stroke-width:0.308865;stroke-dasharray:none;stroke-opacity:1"
         id="path11-3-0"
         cx="76.279465"
         cy="106.52665"
         rx="3.8167355"
         ry="3.2612987"
         transform="matrix(0.98432368,-0.17637145,0.18837221,0.98209771,0,0)"
         inkscape:transform-center-y="0.54654814"
         inkscape:transform-center-x="-0.11111061" /><path
         style="fill:#7ab2d3;fill-opacity:1;stroke-width:0.989735"
         d="m 106.54066,245.24216 c 12.01741,-0.3126 17.21828,-0.63282 29.25857,-6.04466 10.81769,-4.86233 26.95589,-16.65587 33.66697,-26.10961 4.93094,-6.9461 10.58348,-16.99751 13.174,-25.1415 3.23997,-10.18569 2.92678,-17.32622 1.79044,-29.6335 -1.84319,-19.96304 -11.53305,-37.03446 -24.86823,-51.17195 -6.83863,-7.250087 -12.61719,-9.838 -16.76909,-11.439072 -2.1278,-0.820528 -4.08611,-0.227564 -5.02494,0.872514 -0.99273,1.163267 -1.03656,2.071497 -0.43141,3.733848 0.92096,2.52987 3.05585,2.77441 7.26939,6.64854 9.92695,9.12735 19.09142,22.23725 23.55516,35.81531 3.35309,10.19966 2.67478,26.27072 1.69333,31.72404 -1.46571,8.14405 -3.70124,13.96071 -10.67795,22.47344 -6.45003,7.87008 -17.28528,15.45485 -27.41709,19.79406 -9.70183,4.15506 -23.79519,4.47994 -39.569587,2.81164 -5.445671,-0.57595 -10.683477,-0.64563 -15.009405,2.85931 -3.733703,3.02511 -5.845649,10.36826 -2.593924,14.51494 3.211623,4.09554 8.796216,6.34866 13.828422,7.49071 4.718105,1.07076 8.873006,1.04262 18.125344,0.80194 z"
         id="path2"
         sodipodi:nodetypes="sssssssssssssssssss" /><circle
         style="fill:#7ab2d3;fill-opacity:1;stroke:#dff2eb;stroke-width:0;stroke-dasharray:none;stroke-opacity:1"
         id="path57"
         cx="81.707993"
         cy="94.306412"
         r="2.8936162" /><circle
         style="fill:#7ab2d3;fill-opacity:1;stroke:#dff2eb;stroke-width:0;stroke-dasharray:none;stroke-opacity:1"
         id="path57-9"
         cx="69.798813"
         cy="99.704399"
         r="2.8936162" /><circle
         style="fill:#7ab2d3;fill-opacity:1;stroke:#dff2eb;stroke-width:0;stroke-dasharray:none;stroke-opacity:1"
         id="path57-9-3"
         cx="59.222374"
         cy="106.77626"
         r="2.8936162" /><circle
         style="fill:#7ab2d3;fill-opacity:1;stroke:#dff2eb;stroke-width:0;stroke-dasharray:none;stroke-opacity:1"
         id="path57-9-3-8"
         cx="50.664024"
         cy="115.29325"
         r="2.8936162" /></g></g></svg>
